# xmcd
#
# Track frame offsets: 
#        150
#        20013
#        38508
#        61894
#        78615
#        101968
#        127108
#        143969
#        165693
#        190239
#        210143
#        231470
#        259919
#        279125
#        299792
#        316760
#
# Disc length: 4406 seconds
#
# Revision: 0
# Processed by: cddbd v1.5.2PL0 Copyright (c) Steve Scherf et al.
# Submitted via: ExactAudioCopyFreeDBPlugin 1.0
#
DISCID=ee113410
DTITLE=Phuong Thanh - 64 tinh ca CD2
DYEAR=1900
DGENRE=
TTITLE0=Buoc chan hoang
TTITLE1=Khi da yeu
TTITLE2=Trong vang
TTITLE3=Em nhu tia nang mat troi
TTITLE4=Tinh xot xa 
TTITLE5=Tieng rao
TTITLE6=Bup be
TTITLE7=Tinh ca chim da da
TTITLE8=Tra no tinh xa
TTITLE9=Mot minh trong chieu vang
TTITLE10=Xa nhau mua thu
TTITLE11=Bong bien
TTITLE12=Chut tinh lang quen
TTITLE13=Hay ve voi em
TTITLE14=Lang thang ve dau
TTITLE15=Mot thoi da xa
EXTD=
EXTT0=
EXTT1=
EXTT2=
EXTT3=
EXTT4=
EXTT5=
EXTT6=
EXTT7=
EXTT8=
EXTT9=
EXTT10=
EXTT11=
EXTT12=
EXTT13=
EXTT14=
EXTT15=
PLAYORDER=
